<svg width="18" height="19" viewBox="0 0 18 19" fill="none" xmlns="http://www.w3.org/2000/svg">
<path d="M15.9765 7.7958C15.9324 7.6619 15.8521 7.54429 15.7454 7.45723C15.6387 7.37017 15.5101 7.3174 15.3753 7.30532L11.3977 6.69771L9.61518 2.91296C9.55793 2.78919 9.46856 2.68481 9.35729 2.61177C9.24602 2.53874 9.11735 2.5 8.98603 2.5C8.85471 2.5 8.72605 2.53874 8.61478 2.61177C8.50351 2.68481 8.41413 2.78919 8.35689 2.91296L6.57432 6.69039L2.59673 7.30532C2.46735 7.32458 2.34572 7.38143 2.24563 7.46942C2.14555 7.55741 2.07102 7.67302 2.0305 7.80312C1.99341 7.93026 1.99008 8.06558 2.02087 8.19455C2.05166 8.32352 2.1154 8.44128 2.20526 8.53518L5.09233 11.4634L4.39328 15.6215C4.36833 15.7588 4.38139 15.9006 4.43094 16.0303C4.48049 16.1601 4.56445 16.2722 4.6729 16.3536C4.77861 16.4327 4.90329 16.4794 5.03295 16.4885C5.1626 16.4975 5.2921 16.4686 5.4069 16.4048L8.98603 14.4502L12.5512 16.4121C12.6493 16.4701 12.7601 16.5004 12.8727 16.5C13.0208 16.5005 13.1652 16.4518 13.2852 16.3609C13.3936 16.2795 13.4776 16.1674 13.5271 16.0377C13.5767 15.9079 13.5898 15.7661 13.5648 15.6288L12.8658 11.4707L15.7528 8.5425C15.8538 8.45296 15.9283 8.33526 15.9679 8.20308C16.0075 8.07091 16.0105 7.92968 15.9765 7.7958ZM11.6774 10.724C11.5954 10.8071 11.5341 10.9099 11.4987 11.0234C11.4634 11.137 11.4551 11.2579 11.4746 11.3756L11.978 14.4429L9.34954 12.9788C9.2484 12.9224 9.13557 12.8929 9.02099 12.8929C8.9064 12.8929 8.79357 12.9224 8.69243 12.9788L6.06401 14.4429L6.56732 11.3756C6.58685 11.2579 6.57859 11.137 6.54325 11.0234C6.50792 10.9099 6.44658 10.8071 6.3646 10.724L4.26745 8.52786L7.21045 8.08131C7.32369 8.06481 7.43135 8.01948 7.52397 7.94928C7.6166 7.87908 7.69137 7.78617 7.74173 7.67867L8.98603 4.88952L10.3002 7.68599C10.3506 7.79349 10.4254 7.8864 10.518 7.9566C10.6106 8.0268 10.7183 8.07213 10.8315 8.08863L13.7745 8.53518L11.6774 10.724Z" fill="#001640"/>
</svg>
